PathFileType	4	(X/Y/Z)	2_coords_data.trc
DataRate	CameraRate	NumFrames	NumMarkers	Units	OrigDataRate	OrigDataStartFrame	OrigNumFrames
30.0	30.0	4	21	m	30.0	1	65
Frame#	Time	THUMB_TIP	THUMB_IP	THUMB_MCP	THUMB_CMC	INDEX_TIP	INDEX_DIP	INDEX_PIP	INDEX_MCP	MIDDLE_TIP	MIDDLE_DIP	MIDDLE_PIP	MIDDLE_MCP	RING_TIP	RING_DIP	RING_PIP	RING_MCP	PINKY_TIP	PINKY_DIP	PINKY_PIP	PINKY_MCP	WRIST
X1	Y1	Z1	X2	Y2	Z2	X3	Y3	Z3	X4	Y4	Z4	X5	Y5	Z5	X6	Y6	Z6	X7	Y7	Z7	X8	Y8	Z8	X9	Y9	Z9	X10	Y10	Z10	X11	Y11	Z11	X12	Y12	Z12	X13	Y13	Z13	X14	Y14	Z14	X15	Y15	Z15	X16	Y16	Z16	X17	Y17	Z17	X18	Y18	Z18	X19	Y19	Z19	X20	Y20	Z20	X21	Y21	Z21
0	-2.749317978547796e-18	0.47033522020231067	-0.024699623128616066	-0.17533104266570754	0.47376960247919153	-0.02770304322503081	-0.15281028588222667	0.47281507745431817	-0.030581076490734382	-0.12183245822277977	0.473007293569346	-0.03129279031481225	-0.07723036728078758	0.5599941500090562	0.025707376931579207	-0.1811375191031666	0.5515889562579765	0.01594704451824447	-0.1684061158345549	0.5383025425530474	0.007622847918168474	-0.14875442901574065	0.5150324932573656	-0.006809250150536905	-0.11613763203762195	0.5914883219075366	0.04804517307951661	-0.13893938822737434	0.5797052191468388	0.03544773360603659	-0.13342005782932398	0.5585581785335658	0.019350519663672294	-0.12145795405973847	0.5229204589610857	0.003856515673620109	-0.09941171390343262	0.6042697900024548	0.0392832323990131	-0.098259228289856	0.5893430293545119	0.02957255706547879	-0.09544949500612432	0.5677202368317111	0.018133451720718008	-0.0907824090386945	0.5317493214021998	0.0010798096748655395	-0.08371223434955999	0.5968141308398521	0.029346188492578862	-0.05311590675392197	0.5830946258762297	0.019519327364673655	-0.05598086468136232	0.5645819054940915	0.010269679046619129	-0.05952137439679539	0.5325443840050956	-0.004993100268317452	-0.06596561488157493	0.4622830810018609	-0.023011742144276925	-0.051989820119430985
1	0.03333333333333339	0.4708373735309741	-0.024519681584903252	-0.1752867394064993	0.47401698353254695	-0.027735296997208114	-0.15275787130892182	0.4731038783398559	-0.030864760933910884	-0.12180318354800318	0.4733825351721309	-0.030893770154833633	-0.07719588023526158	0.5603240061623789	0.026250805140558664	-0.18072597122644535	0.551926519392917	0.01658251365119323	-0.1679194746081903	0.5386551110781136	0.007726598530870654	-0.1484913423839283	0.5153332954958676	-0.0064348584600131264	-0.11579299154106382	0.591886486749077	0.04860432364642242	-0.13799198577112848	0.5799985920082218	0.036066362420956066	-0.13256266841633613	0.5586801522750786	0.020008536872177185	-0.12085455516144594	0.5234114696337655	0.0033559306201056405	-0.09906100908101623	0.6044056184025814	0.03949515557394101	-0.0978526500975514	0.5894904062850539	0.02976859358532158	-0.09503654651801063	0.5677866211977346	0.01844844464566686	-0.09045616226911934	0.5319729914368669	0.0011634986789397228	-0.0831530533230046	0.5968991400228196	0.02919711125449953	-0.052391267646223705	0.5832288741340584	0.019341684148970528	-0.05539033201668597	0.5648754436819428	0.009876895641339312	-0.0591826120887754	0.5325544807415314	-0.004775414978549608	-0.06562843237038851	0.4622830810018609	-0.023011742144276925	-0.051989820119430985
2	0.06666666666666676	0.4712555603738222	-0.024379810533056046	-0.17523535920472222	0.47423160593925284	-0.02775118411339572	-0.15270145157700993	0.47333878790937567	-0.031066737151859924	-0.12176555036151826	0.47366975588906235	-0.03058917062450306	-0.07716115158282855	0.5606054308404644	0.026636465635078377	-0.18038022483562344	0.5522071855485386	0.017040750685459294	-0.16751975320265827	0.5389441548885571	0.007776248051401979	-0.1482773302352684	0.5155703951637348	-0.006181598389725651	-0.11552855967739584	0.5922023402485159	0.0489550644999418	-0.1372575422874056	0.5802305568519546	0.03647017282427534	-0.131890617455373	0.5587702878438616	0.020459978626019226	-0.12037801193644654	0.5237876885970421	0.0029522104150609962	-0.09879459878634944	0.60453095794893	0.03959185187329839	-0.09755858051373856	0.5896181183253668	0.02986465372595737	-0.094732128574602	0.5678476131047328	0.018649403255913466	-0.09021070862811087	0.5321494027491593	0.0012057162232249619	-0.08272229129767006	0.5969748480851667	0.029036788281319836	-0.05186428647742303	0.5833359357749531	0.01916732953235667	-0.05495845114608855	0.5650997987390138	0.00955126480144819	-0.05893168963596318	0.5325648437344157	-0.004623555686249614	-0.06536866237090011	0.4622830810018609	-0.023011742144276925	-0.051989820119430985
3	0.10000000000000014	0.47159229538645475	-0.024300785991844265	-0.17518940680785078	0.47441239656894574	-0.02777629753387345	-0.1526512647184563	0.47352131121359653	-0.031217453217316393	-0.12172903299996946	0.4738768305485501	-0.030374802371585186	-0.0771302264514232	0.560850010138221	0.026874249576252174	-0.18010312539985218	0.552443126446337	0.017333669336664692	-0.16720732626668	0.5391786885081125	0.007775241527975041	-0.14811018048493935	0.5157518687062606	-0.0060354043943470215	-0.11533692512054478	0.5924622181171235	0.04912451835858811	-0.13672352339651245	0.5804252691614009	0.036686668317324145	-0.131393256406168	0.5588483726645541	0.020731612158510382	-0.12002297626302882	0.5240654093061508	0.002634618398046795	-0.09860354121348314	0.6046482378632526	0.03958989242409727	-0.09736903560284027	0.5897300174633648	0.029875098112755905	-0.09452835406688742	0.5679051649465301	0.018752182647635784	-0.09004097808818845	0.5322845248045791	0.0012131186721622278	-0.08240736395451154	0.5970493412034065	0.028874987357745407	-0.05151029391771522	0.5834255741930041	0.019003704358550033	-0.05466477396933489	0.5652674625620634	0.009290511347198493	-0.05875731383139238	0.5325760319999155	-0.004527832046222757	-0.06517659764360739	0.4622830810018609	-0.023011742144276925	-0.051989820119430985
